<mxfile host="65bd71144e">
    <diagram id="VwAVbGGK6TXdkgo85887" name="Page-1">
        <mxGraphModel dx="2070" dy="730" grid="1" gridSize="10" guides="1" tooltips="1" connect="1" arrows="1" fold="1" page="1" pageScale="1" pageWidth="850" pageHeight="1100" math="0" shadow="0">
            <root>
                <mxCell id="0"/>
                <mxCell id="1" parent="0"/>
                <mxCell id="2" value="" style="shape=image;verticalLabelPosition=bottom;labelBackgroundColor=default;verticalAlign=top;aspect=fixed;imageAspect=0;image=data:image/png,iVBORw0KGgoAAAANSUhEUgAAAHUAAABnCAYAAAA+Gg0sAAAABmJLR0QA/wD/AP+gvaeTAAAHzUlEQVR4nO3cX0hT/x/H8ecyNTLLmEppUaBIeWFpivwSq1ngFDOsX99CJSjrQmtU3qTdKGElRL+E6K920YX0x59GJaRlrfIivJD5h6Q0CQkz/Ifohgq6/S76dWhtK7O5zU+fBwieT+dz+pzz2s45O+/5AUmSJEmSJMkulZ22fwH5rh6INGtvgP9837DQzkqrgX9v3brVJSOSZq+jo4OBgQGbdnuhAlBcXDyX45GcoLi4mFevXtm0L3DDWKQ5JkMVkAxVQDJUAclQBeTw7nc+SktLw2Qy2bTfv3+foKAgANra2igvL6erq4vQ0FCOHTtGdHT0jPqbzWZu3rxJXV0dExMTxMXFkZ+fz/Lly+d2x36TUKHW1tZaLZeVlfHx40cl0Ldv33Lq1Cny8vI4d+4cY2NjVFVVKaH+qn9lZSV6vZ6LFy8SEBDAhQsXOHPmDJcuXXLB3s2cR51+R0ZGKCkpISMjg4yMDM6fP8/Y2BgADx484MiRI1br9/X1kZSUxJcvX2y2NTExwbNnz0hPT1faKioqSE1NZefOnfj7+xMSEsLx48ftjsVe/0ePHrFv3z7CwsJQq9Xk5ubS0tLCp0+fnLH7TuNRoRYXF2M0GqmoqODGjRsMDAxw9uxZAHbs2EFPTw8fPnxQ1q+rq2Pjxo2sWLHCZlsNDQ14e3uzZcsWAKampmhvb2fZsmUcPHgQrVZLbm4ura2tdsfyY//R0VEGBwdZt26dss6aNWvw9fWlu7vbacfAGTwm1L6+PlpbWzlx4gRqtZrg4GB0Oh1NTU0MDQ3h7+9PQkICT548AcBisVBfX09qaqrd7T1+/JiUlBS8vb0BMJlMTE9PU1tbS2FhITU1NSQkJFBYWGj3UZu9/gB+fn5W6y1ZssTuddidPCbU/v5+vLy8rN51oaGhAMpBT0lJoaGhgampKQwGA0ajkcTERJttvX//nq6uLtLS0pS2RYsWoVKpSE1NJSIigsWLF5OdnY2Pjw8Gg+GX/b+F+WOARqPRJmh385hQg4ODmZ6epr+/X2nr7e0FUG5U4uLi8PHx4c2bN9TV1ZGUlISvr6/Nth4+fEhMTIzyogDw9fVl9erVVutZLBYsFgsqleqX/ZcuXUpgYCDv3r1T2np6epicnCQsLOwP9tz5PCbUlStXEhUVRVlZGUNDQ/T393P58mXi4+NRq9UAqFQqkpOTqa6u5vXr13ZPvSaTiRcvXljd4Hyza9cuamtr6ezsZHx8nMrKSsxmMzExMTPqn56ezr179+ju7mZ4eJhr166xYcMGmxeLu3nUR5qioiKuXLlCTk4OKpWKuLg4jh49arWOVqulsrKStWvXWt20fPP06VP8/PxISEiw+bfdu3djMpk4ffo0RqOR8PBwSktLlRfNr/pnZWVhNBrJz89ncnKS2NhYioqKnLDnzmWvSP4PcE+v17t6LNJv+n/p7b/A3u/bPeb0KzmPDFVAMlQByVAFJEMVkAxVQDJUATl8+PDy5UsXDkOaDXuFCEf+ASzyZ978VP0YoMN3qnyi5Pnkl7n/IjJUAclQBSRDFZAMVUAyVAHJUAUkQxWQDFVAMlQByVAFJEMVkAxVQDJUAclQBSRDFZAMVUAyVAHJUAUkQxWQDFVAMlQByVAF5PB7vxqNxpXjkJzIYaieOJeBZK2qqoqOjg6bdoehbtu2bS7HIzmBo793ktdUAclQBSRDFZAM1QkMBgN5eXnKckFBgd2/RnMVGaoTlJeXk5WVpSxnZmZSUVGBxWJxy3icPo3d8PAwe/fu5fnz587etF3unmK9q6uL3t5e4uPjlb5RUVFMTU3R3NxMbGzsXOz2T3nU3ISz4e4p1hsbG4mJiWHhQutDGRsbS2Njo1tCdfvpd75Psd7R0UF4eLjNtiIiIuw+GHAFt4c636dYHxwcJCAgwGZbAQEBDA4OzvKo/BmnhFpaWopGo0Gj0bBnzx7MZrOyrNFouHXrlt1+cor1ueGUUAsKCtDr9ej1eqqrq1mwYIGyrNfrycnJsdtPhCnW1Wo1IyMjNuMZGRkhMDDQ8UGbQ249/YowxXpkZKTV5eGbzs5O1q9fP+Nj4UxuDVWEKdYTExMxGAxMT09b9Wtublauza7m9o80832K9YiICEJCQmhqamLz5s0AtLe34+XlxaZNm2Z9XP6EnG7dCQwGA+Xl5Vy9ehX4eo+h1WrnvHzpaLp1t79TRRAdHa0ECl8/DbiT2z+nSs4nQ3UxV1R0ZKgu5oqKzryv0vyOv6Wi81fdKP0tFZ15dfqVFZ2Z8fhQzWaz8rus6MyMU06/paWl1NfXW7V9/w3/7Oxshw/1P3/+zPXr12lpacHPz4/t27eTnJxMUFAQDQ0NjI6OkpmZqVR07ty5ozwN0ul0HDp0iKGhIdRqtVLR0el0SkXn8OHDdv/fn1V0SkpKWLVqFTU1NRQWFnL79m3lFPuz/uAZFR23Vmng6ys+OTmZu3fvUlJSwvj4OCdPnmT//v20tbWh1WoBWdH5HW6/UTpw4IDye1hYGDqdDp1OZ7Pe9xWd4OBg4OcVncbGRrdVdCIjIwH3VXQ8/pr6jazozJzb36m/Q1Z0ZkZWaVzMmRUdWaXxEK6o6Myba6o0czJUAclQBSRDFZAMVUAyVAHJUAUk51ESkL0nSquAza4eiDRrn4A37h6EJEmSJEnSvPA/zvc5npso2l0AAAAASUVORK5CYII=;" parent="1" vertex="1">
                    <mxGeometry x="-386" y="337" width="117" height="103" as="geometry"/>
                </mxCell>
                <mxCell id="3" value="" style="shape=image;verticalLabelPosition=bottom;labelBackgroundColor=default;verticalAlign=top;aspect=fixed;imageAspect=0;image=data:image/png,iVBORw0KGgoAAAANSUhEUgAAAH0AAAB1CAYAAABj0+5IAAAABmJLR0QA/wD/AP+gvaeTAAAI9klEQVR4nO3de0gU7x7H8fdWltHFpXWt7AIVGHaDblaU5RaxEv1hZIUa/VGRkgl1ikWJUgRprTiYpVTaH0URh4oiumdoGUmEWBZSFkWYGt7aLLWL1vmj4/40d72cvc063xcs5OzMs8/Ox5md2a9PDwghhBBCCK+ksbFsEfAvd3dEuEwR8O+OCwbZWGkCELls2TK39Ei4TllZGbW1tV2W2wodgJSUFFf2R7hBSkoK9+/f77J8gAf6IjxMQlchCV2FJHQVktBVyO7VuyeYTCaePHkCwODBg9HpdEyfPp3IyEimTp3a63ZiY2NZs2YN4eHhTumXs9vzNMUd6WvXriU/P5/r16+Tnp6OTqcjPj6ewsJCT3et31DUkd7RoEGDmDBhAnFxcTQ2NpKZmcmSJUvQaDS0tLSQm5vLw4cPaWpqYubMmezcuZPRo0eTmppKeXk56enppKenExwcTHZ2drfbADQ3N3Pq1CkePXrE169fCQsLIz4+noMHD9psz2KxcOzYMYqLiwEICQlhx44djBgxAoCtW7eycOFCXrx4QXl5OXv27GH58uUe258dKTb0jlauXMnNmzepqKhg4sSJHDhwgB8/fpCRkYGfnx+nT59m3759nDhxgv3791NZWdnldNzdNhqNhrS0NL58+YLZbEan01FQUEBJSYnd9lJSUvD19SU3N5e2tjbMZjNpaWmYzWbrOjdv3iQ1NZXg4GAGDFDOSdUrQtfr9QA0NjZSW1tLYWEhFy9eRKfTARAXF8fq1at59+4dkydP7rJ9T9sMHz6cR48ecfbsWcaNGwfA6tWr7fanurqaZ8+ecf78eWt7CQkJbN68mfr6euuyNWvWMH36dOftCCfxitDbvz/28/OjuroagMjIyC7rffz40WboPW0zfPhwBgwYQGBgYK/6U1NTw8CBAxkzZox1WfsvS21trTX0gICAXrXnbl4R+t27d9Hr9YwfP54hQ4ag0Wi4cuUKI0eOtLn+36fSMWPGdLtNTU0Nv379oqqqyhped+0FBATQ1tZGTU2NNdjKykrgn7MSgEZjq4jpecr5oPlLa2srFRUVnDhxgjt37pCQkIBGoyEgIIDFixdjNpv58OED379/5+XLl+zbt4+fP38CMGrUKN6+fUtbWxtAj9sEBASwaNEiDh48yPv372lqauLatWsUFRXZbG/s2LHMmjWLjIwM6uvrqamp4ejRoyxYsMB6lCuZrV/F9cB/8vPz3d2XTvfpPj4+6HQ6ZsyY0eU+vbm5mTNnzvDgwQM+ffrEpEmTiImJYfHixQC8ePGCQ4cOUVlZSVBQENnZ2T1u09TURE5ODkVFRbS0tBAWFsb27dvx9fW12V5DQwNZWVkUFxej0WiYP38+8fHx+Pn5AX+u3jds2MDKlSvdvBf/8b8q20VgXcfligpdOJe90BV7eheuI6GrkISuQhK6CknoKiShq5CErkJ2v4YtKChwYzeEK9j6m3d71gO/5dFvHhf4i90jXb6R834y2EFYSegqJKGrkISuQhK6CknoKiShq5CErkISugpJ6CokoauQhK5CEroKSegqJKGrkISuQhK6CknoKiShq5CErkISugpJ6CokoauQ3b97NxgM7uyHcCO7oScnJ7uzH8IFLly4QFlZWZfldkMPCwtzZX+EG9gbjyif6SokoauQhK5CEroblJSUsH37duvPiYmJNkeTuouE7gY5OTnExMRYf46OjiY3N5ffv397pD9OD72hoYEVK1b0en2TyYTBYMBgMGA0GomOjiYtLY1Xr1716XVjY2O5detWX7vr8vZev35NZWUlCxYssC6bNWsWra2t1gkC3E0RR3p/nsKjsLCQOXPmMGhQ57vjefPmeez9Keq//u6PU3iUlZUxe/bsLu81KCiIq1evum/ndqCo0DvqL1N4nDlzBq1W2+X9abVa6urqXLsT7XBK6Gazmdu3b3da1vG7+40bN7Jly5Y+tSlTeLiOU0JPTEwkMTER+HMht27dOu7du+dQm/1lCg+dTofFYunSnsViwd/fv1ev7WyKPb33lyk8pk2bxps3b7q0X15eTnBwsM334mqKuHpv1x+n8AgNDaWkpMTaTrvi4mKWLl3qit3YI0WEfunSJQwGA6tWrcJkMlFXV0dWVhahoaHWdZKSkpg4cSImk4mIiAgyMzMJDw/Hx8cHgKioKB4/fozRaLR++9XTNnv37mXSpEmYTCaioqIoLy+3Xmnbai85OZmhQ4eyZcsWYmNj8ff3Jykpqdv3FhQURGBgII8fP7Yue/78OQMHDmTu3LnO24l9INN5uEFJSQk5OTlkZ2cDf66BwsPDXV6+tjedh2I/0/uT2bNnWwMHOt3ieYIiTu/CvSR0hXFHRU5CVxh3VOQ8XmXrC6nIOYfXHelSkXOc1169S0XOgX3ntJZc5NevXz1OOC8Vub7xeJWtqqqK48eP8/TpU4YNG8aKFSswGo3o9Xry8vJobGwkOjq629eXilzfeLzKlpeXh9FoJDExkerqam7cuMGuXbtobW0lJCSEuLi4HtuQilzfePz0vmnTJuu/p0yZQkJCAgkJCX1qQypyfeN1V+/tpCL3//O60KUi5zipsimMMytyUmXzEu6oyHnd6V04TkJXIcWF3tDQgMFg4PPnz57uSidKG4ToCMWFrlRKG4ToCK8qrdrijjKpEgchOkKO9F5Q4iBER3j8lq2+vp7Dhw9TWlqKXq8nIiKi0/NKKJMqcRCiIzweempqKlqtlnPnztHc3Exqamqn55VQJq2rq1PcIERHeLS0WlVVRWlpKZcvX0ar1aLVatm2bRu7d+8Gei55uqNM2h95tLRaW1uLr69vp6OoY/lSCWVSUOYgREd49PSu1+v59u0bFovFGnx7aNBzyRNcXyYFZQ5CdIRHr94DAwOZMWMGR44cwWKxUF1dzcmTJ63PK6FMCsochOgIj9+yJScn09LSQkxMDElJSRiNxk7PK6FMqsRBiI6Q0moveWoQoiOktOogpQ1CdITHT+/C/SR0FZLQVUhCVyEJXYUkdBWye8tmb/4P4T3ah3v1xnrgtzz6zeMCQgghhBCif/gv1OB9anKhy04AAAAASUVORK5CYII=;" parent="1" vertex="1">
                    <mxGeometry x="-263" y="337" width="125" height="117" as="geometry"/>
                </mxCell>
                <mxCell id="4" value="" style="shape=image;verticalLabelPosition=bottom;labelBackgroundColor=default;verticalAlign=top;aspect=fixed;imageAspect=0;image=data:image/png,iVBORw0KGgoAAAANSUhEUgAAAJMAAABnCAYAAAAE5nAaAAAABmJLR0QA/wD/AP+gvaeTAAAKg0lEQVR4nO3db0xT9x7H8XdBq1XZmiClMK+bI3aOOKNsatCoVBdBZIkRvTdaswfDKAO7qNuAhhCmho0sPnD/mA7cg2Vq7lA0Rh0kbLp1w5nMMDESIibGaIHwz7ohyIblPiCeu44iUk/pKX5fj8r5Q3+nfPid08OXfkEIIYQQQggxanQ+liUCO0d7ICLkrP/ngnE+NvoXsG7ZsmWBH44IOW1tbdTX1/tc52tm+jfw37NnzwZ0UCI0nTt3jl27doGP7ISN/nDEWCVhEqqRMAnVjNkwdXZ2YrVauXPnTrCH8sQYs2EKdVlZWZw+fTrYwxgRX7cGhAaUlJQEewgjJjOTUI1mZqbjx49z5swZSktLlWXNzc3YbDYOHz6M2Wx+6P4dHR3s3buXuro6oqKiWLNmjdf6np4eysrK+Omnn7h79y4vvfQS27dvJzo6GoDNmzeTkJBAQ0MDjY2NREdHk5uby+XLlykvL6e7u5vly5ezc+dOdLqBWyxut5tPP/2UixcvArBgwQK2bdtGREQEABUVFZSXl3P79m0sFgt2u52ZM2cC4HA4+OWXX9DpdERHR5OamsqmTZuU752VlcXq1atZvXo1AN3d3Rw8eJCamhq6urpISkoiOzubiRMnPu5LrxrNzEyvvvoqN27c4Nq1a8qyyspK5s6dO2yQAHbv3o1er+fQoUO8//77VFZWeq3/4IMPcLlc7Nu3j2+++Ybp06dTUFBAf3+/so3T6WTbtm1UVFQQHx/PO++8w82bN/nyyy85cOAANTU1/PDDD8r27733Hl1dXZSVlXHgwAHa2tooKioC4NatW3z++efk5+dz8uRJMjMz+e6777zGc/bsWaqrq9m9ezdVVVV8//33Qx5fUVERjY2NFBcXc+TIEV544QVqa2uHf2FHkWbCFBERweLFi/n2228B6O/vp6qqitTU1GH3bWpqoq6ujh07dmA0GomNjWXLli3K+ra2NpxOJ++++y4xMTFMmjSJzMxMXC4X169fV7Zbu3YtFosFg8HAypUr6enpITs7m4iICKZNm0ZCQgKNjY3AwKx56dIltm/fTmRkJCaTCbvdzoULF+jo6CA8PJxx48YxadIk9Ho98fHxZGZmDhp7WFgYM2fOZO3atfz8888+j6+1tZWamhpyc3N59tlnmTJlCmlpaSQmJo7oNQ40zZzmAFatWkVRURFvvvkmdXV1dHV1sWTJkmH3a2trY+LEiRiNRmVZbGys8ri5uRmAdevWDdq3paWF559/HsBrf71ez4QJE7xOI3q9nt7eXmDgBxweHu41az7zzDPKeGbNmkVBQQH79+/nzp07xMXFkZ6eTlxcHDDwZ4nDhw9z8+ZN7t27B8Ds2bN9Hl9LSwthYWFex6RFmgrT/Pnz0ev1nD9/HqfTyfLly5kwYcKw+0VFRXHv3j3cbrcSiAcBAjCbzeh0Ok6cOMFTTz2lylhNJhP379+ntbUVk8kEgMvlUsYDsGjRIhYtWkR/fz/V1dW89dZbVFRU0N3dzZ49e9i1axcJCQkYDAaOHTs25GnObDbj8XhoampSAqtFmjnNAeh0OpKTkzl27Bg//vjjI53iYGAWmj17Nh999BFut5vm5ma++OILZb3JZGLx4sUUFxdz69Ytent7aWhooKCggL/++suvscbExDBnzhz27dtHR0cHra2tfPLJJyxcuJDIyEh+/fVXysrKcLlc9PX14fF4+PPPP/F4PPT29tLf38/kyZMZP3489fX1lJeXD/lcJpOJxMREPvzwQ27cuMHdu3c5deoU58+f92vsgaKpmQkgJSWFQ4cO8dxzzzFr1qxH3q+wsJC9e/dis9mUd3MNDQ3KeofDwVdffUVOTg63b99mxowZ2Gw2xo8f7/dYCwsL+eyzz8jIyECn0zF//nyys7MBmDt3LteuXSM3N5f29namTZtGYWEhBoMBg8HA1q1b2bNnD3/88QcWi4WlS5dy5cqVIZ8rPz+f0tJScnJy6OnpISkpiaysLL/HHghSgiJGREpQxKjQ3GnOl5aWFjZs2OBzXXJyMnl5eaM8IuFLSITJbDYjp13tk9OcUI2ESahGwiRUI2ESqhnyAvzcuXOjOAwRKh52Y3XIm5YBG40YKwZlZ8iZSd6KC1/+dgd8ELlmEqqRMAnVSJiEaiRMQjUSJqEaCZNQjYRJqEbCJFQjYRKqkTAJ1UiYhGokTEI1EiahGgmTUI2ESahGwiRUI2ESqpEwCdVImIRqJExCNRImoRoJk1CNhEmoRv4JU/jr0f8Js7CwMLBDESHpypUrHD161Oe6IcOUlJQUqPGIEDdUmOSaSahGwiRUI2ESqhlTYXrSWqnW1tZ6fbB8Xl6eV9ep0TamwhTqRtpKtbS0FJvNpny9ceNGysrKvNqejSbVw9TZ2cmKFSvU/rZPhJKSEqVZ4XAaGxtxuVwsXLhQWTZnzhz6+vqUZoqjTWamEOV0OklISGDcOO+7O6+88gpOpzMoYwrqh8pLK1X/W6nW19czb968Qa+JxWLh5MmTI/5ZqCGoM5O0UvW/lWp7e7tXs8UHjEYj7e3tw752gaBKmIqLi7FarVitVtLT0/F4PMrXVquVgwcP+txPWqmGfivVv1PlNJeXl6c0w+ns7GT9+vVev5EPI61U/WulGhkZidvtHrTc7XYzdepUn/sEWtAb8UgrVf9aqcbHx3tdHjxw9epVXnzxRVWOd6SC/m5OWqn6Nlwr1SVLllBbW8v9+/e99rt48SJLly716/geV9DDBAOtVC9dukRMTMyIW6n29PRgs9lwOBwkJyd7rXc4HEyfPp2cnBzWrFnDxx9/TEpKymO3UjUYDGRkZLB161amTp2Kw+EABlqpTpkyhdzcXF577TXKy8uV7c1ms9JKNTU1lZKSkmF/6Pn5+cyYMYOcnBw2bNjA1atXlXdwFouF2NhYLly4oGx/+fJlwsPDefnll/0+vschbVVDWG1tLaWlpZSUlAAD164pKSkBLR96WFvVoF8zCf/NmzdPCRIMvKsOJs2GSVqphh7NhinQrVQ7OztJT0/nxIkTPP300wF7Hq3wdUpctWoVy5YtU+05NHEBLkZOixUGUjUQorRYYSAz0xNgtCoMNHvN9E9SYaD9CgPNz0wejweQCoNQqDBQZWYqLi6mqqrKa5nValUeb9q0iYyMDJ/7NjU1sX//fn777TcmT57MihUrSE5OJioqiurqan7//Xc2btzoVWFgt9uVCoPNmzcPO74HFQbHjx/HaDRiNBrZsmULb7/9NvD/CoOjR48SGRkJQGZmJmlpaVy/fl35o/CDCgOAlStXUllZqfz2R0REKBUGSUlJSoXBkSNHlO9pt9t54403hqwwiI+PHzT2f1YY+LoefVBh8PXXXyt/x0tLSxv2dVFb0KsGqqurlftGzc3NnDlzhh07dtDX18eCBQu8SjikwkDbFQZBv2Z6/fXXlcdxcXHY7XbsdrvPbaXCQNsVBpq/Zvo7qTDwTSsVBiEVJpAKg6FoocJAqgaeEGpVGEjVgBiVCoMxESapMNCGMRGmQFcYiEcTchfgQrskTEI1EiahGgmTUI2ESahGPgdc+OuRblrWAP8J/FiEEEIIIYQQQvjtf2ilLQxL0l7sAAAAAElFTkSuQmCC;" parent="1" vertex="1">
                    <mxGeometry x="-541" y="337" width="147" height="103" as="geometry"/>
                </mxCell>
                <mxCell id="5" style="edgeStyle=orthogonalEdgeStyle;rounded=1;html=1;entryX=0.5;entryY=0;entryDx=0;entryDy=0;strokeColor=#000000;strokeWidth=3;" parent="1" source="9" target="4" edge="1">
                    <mxGeometry relative="1" as="geometry"/>
                </mxCell>
                <mxCell id="6" style="edgeStyle=orthogonalEdgeStyle;rounded=1;html=1;entryX=0.5;entryY=0;entryDx=0;entryDy=0;strokeColor=#000000;strokeWidth=3;" parent="1" source="9" target="2" edge="1">
                    <mxGeometry relative="1" as="geometry"/>
                </mxCell>
                <mxCell id="7" style="edgeStyle=orthogonalEdgeStyle;rounded=1;html=1;strokeColor=#000000;strokeWidth=3;" parent="1" source="9" target="3" edge="1">
                    <mxGeometry relative="1" as="geometry"/>
                </mxCell>
                <mxCell id="8" style="edgeStyle=orthogonalEdgeStyle;rounded=1;html=1;strokeColor=#000000;strokeWidth=3;" parent="1" source="9" edge="1">
                    <mxGeometry relative="1" as="geometry">
                        <Array as="points">
                            <mxPoint x="-327" y="310"/>
                            <mxPoint x="-635" y="310"/>
                        </Array>
                        <mxPoint x="-635" y="337" as="targetPoint"/>
                    </mxGeometry>
                </mxCell>
                <mxCell id="9" value="" style="shape=image;verticalLabelPosition=bottom;labelBackgroundColor=default;verticalAlign=top;aspect=fixed;imageAspect=0;image=data:image/png,iVBORw0KGgoAAAANSUhEUgAAAK0AAACECAYAAADiDKu9AAAABmJLR0QA/wD/AP+gvaeTAAASUUlEQVR4nO2de0wUV8PGfwsqu15pqQuivolSthFba9croBYwrURpU1FrvKRp1BZTxVpjuWgQAalb07wS0VbraqJVmwYhaGy1KVYarNZYQ61KjKDG6IoFFKgIguzy/eHLfKx7AwR2Bs4vIWHOmTnzzOzD2TMzD2dAIBAIBAKBQCAQCARdispOWTCwpquFCAQOOAv8t2VBLzsrDQfmvvnmm12iSCBwRFFREeXl5Tbl9kwLwMaNGztTj0Dgko0bN/Lbb7/ZlHu4QYtA8FwI0woUhzCtQHEI0woUhzCtQHE4vHvgDuLi4jh//rxV2YQJE9iyZYubFNnSUqNGo2HkyJF89NFHvP76625W1nOQlWkB5syZw8qVK90twynNGmtrazEajaxbt46DBw/i7e3tbmk9AtmZ1hHLli1j8uTJXL58mWvXrrF27Vp++eUX/vjjD1QqFb6+vsycOZPFixejUqmkbfR6PVevXqW4uBhfX1/i4+O5dOkSWVlZ1NbWEhERwZo1a6Rt6urqMBqNnD59mkePHvHaa6+xevVqfH19bTT17duXmJgYcnNzuXLlCqGhoXZ16vV6tm/fzoULFwCYOHEiK1euZMCAAQDU1tayZ88ezpw5Q01NDWFhYaxYsQK1Wu1ST05ODllZWVRWVqLT6YiNjSUwMNBlXVVVlVNN9o4jIiKisz7eNqEY0wIcP36c1NRURo0ahYeHh3QSLRYL169fJyUlBX9/f6ZPny5tU1BQQEpKCsOHDyczM1M6+Xv37qW6uppPP/2UcePGERYWBsDmzZtpaGggIyODQYMGsW/fPpKSkti1a5dk7LbqXL16NWq1GqPRiNlsxmAwkJ6ejsFgACA9PZ2HDx9iMBjw8fEhPz+fwsJCgoODneoxmUx88803bN26FZ1OR0lJCSdPniQwMJA7d+44rIOnN+6dabJ3HHJBdqbNzs4mOztbWk5LS2PKlCkAzJ49m9GjR9ts4+HhQWBgINHR0fz+++9Wpo2Ojkan0wHw9ttvc+LECakXGzBgAHq9nuLiYsLCwigvL6egoIDDhw/j4+MDwPLly4mKiuLmzZuMHDnSar/NPaRGoyEoKEgqb6mztLSUixcv8v3330ttxsbGsmTJEu7fv4/ZbObMmTMcOHCAoUOHAhAVFQXgUo9Go6FXr1707duXPn36EBQUJOnw9PR0WOdKU3OZo/PtbmRnWmdjWq1Wa7Wcn5/PoUOHuH37No8fPwbg1VdftVqn5TizT58+eHl5oVarrcrq6+uBpx8mwNy5c232fe/ePcm0zX9YarWaESNGsGnTJl544QW7OsvKyvD09MTPz08qazZneXk5DQ0NeHh44O/vb7NPV3pCQkJISkpi586dVFdXExAQwJw5cwgICGDIkCEO61xpajbts+dbLsjOtM5o+fVcWVlJWloaKSkp6PV6NBoN2dnZ/Prrr+1u38/PD5VKRW5uLgMHDnS4nquLxZY6tVotZrOZsrIyyQQmkwmAwYMHYzabsVgs3L17VzJOW/SEhIQQEhJCU1MTeXl5rFq1ipycHLy8vBzWudJk7zjkhHwGKm2kvr6epqYm+vXrR+/evSkqKiIrK+u52tRqtYSGhmIwGLhz5w719fVcvXqVpKQknjx50q42hwwZwpgxY8jIyOD+/fuUlZWRmZnJpEmT8PHxQavVEhwczJYtW7h16xaPHj3i2LFjnD171qWeP//8E6PRiMlkorGxEYvFQkNDAxaLxWmdK01yR1E9bUv8/PyIiYkhLS2Nhw8fotPpmDZtGleuXHmudhMTE9m/fz9xcXFUVlYyYsQIFi1aRO/evdvdZnJyMjt27GDp0qWoVComTJjAihUrpPr169eze/du4uLiqKurIywsjE8++cSlnrFjx1JSUkJ8fDwVFRUMGzaM5ORkNBqN07rWaJIz9vr/94EfTp061dVaBAIr/hdNPAzMa1mu2OGBoOciTCtQHMK0AsUhTCtQHMK0AsUhTCtQHMK0AsXh8OFCfn5+F8oQCGyxN+eBI94HmsSP+JHJj82zeYc9rXgiJnA3YrIOQbdBmFagOIRpBYpDmFagOIRpBYpDmFagOIRpBYpDmFagOIRpBYpDmFagOIRpBYpDmFagOIRpBYpDmFagOIRpBYpDmFagOIRpBYpDmFagOIRpBYpDmFagOIRpBYpDmFagOIRpBYrD4bwH4eHhXalDIGg1Dk2bnJzclToEAhuysrIoKiqyKXdo2uY3GAoE7sLRfHJiTCtQHMK0AsUhTCtQHMK0ApcUFhZKL+MDSEhIsDubYVchTCtwye7du1m0aJG0vHDhQoxGI01NTW7R0+GvGX3w4AHz5s3j5MmTrVo/Li6O8+fPW5VNmDCBLVu2dLS0dtNSo0ajYeTIkXz00Ue8/vrrblbW+RQXF2MymZg0aZJUNmbMGBobG7lw4QLjx4/vck2yeDeuq7d6y4FmjbW1tRiNRtatW8fBgwfx9vZ2t7ROpaCgAL1eT69e1lYZP348BQUFPde0jli2bBmTJ0/m8uXLXLt2jbVr1/LLL7/wxx9/oFKp8PX1ZebMmSxevFh6zfuyZcvQ6/VcvXqV4uJifH19iY+P59KlS2RlZVFbW0tERARr1qyRtqmrq8NoNHL69GkePXrEa6+9xurVq/H19bXR1LdvX2JiYsjNzeXKlSuEhoba1anX69m+fTsXLlwAYOLEiaxcuZIBAwYAUFtby549ezhz5gw1NTWEhYWxYsUK1Gq1Sz05OTlkZWVRWVmJTqcjNjaWwMBAl3VVVVVONdk7jqKiIt544w2b86DT6Th69GiHfdZtQdamBTh+/DipqamMGjUKDw8PIiIiALBYLFy/fp2UlBT8/f2ZPn26tE1BQQEpKSkMHz6czMxM1q5dS0REBHv37qW6uppPP/2UcePGSQ9QNm/eTENDAxkZGQwaNIh9+/aRlJTErl27JGO3Vefq1atRq9UYjUbMZjMGg4H09HQMBgMA6enpPHz4EIPBgI+PD/n5+RQWFhIcHOxUj8lk4ptvvmHr1q3odDpKSko4efIkgYGB3Llzx2EdPJ0O3pkme8exf/9+u98m3t7eVFRUtOszfV46xLQGg4Gff/7ZqqxldmHx4sUsXbrU4fbZ2dlkZ2dLy2lpaUyZMgWA2bNnM3r0aJttPDw8CAwMJDo6mt9//93KtNHR0eh0OgDefvttTpw4IfViAwYMQK/XU1xcTFhYGOXl5RQUFHD48GF8fHwAWL58OVFRUdy8eZORI0da7be5h9RoNAQFBUnlLXWWlpZy8eJFvv/+e6nN2NhYlixZwv379zGbzZw5c4YDBw4wdOhQAKKiogBc6tFoNPTq1Yu+ffvSp08fgoKCJB2enp4O61xpai5zdL7lRIeYNiEhgYSEBKDtF2LgfEyr1WqtlvPz8zl06BC3b9/m8ePHALz66qtW67TsGfr06YOXlxdqtdqqrL6+Hnj6YQLMnTvXZt/37t2TTNv8h6VWqxkxYgSbNm3ihRdesKuzrKwMT09P/Pz8pLJmc5aXl9PQ0ICHhwf+/v42+3SlJyQkhKSkJHbu3El1dTUBAQHMmTOHgIAAhgwZ4rDOlaZm0z57vn18fKiqqrLRUlVVxUsvvWRT3hXIfnjQ8uu5srKStLQ0UlJS0Ov1aDQasrOz+fXXX9vdvp+fHyqVitzcXAYOHOhwPVcXiy11arVazGYzZWVlkglMJhMAgwcPxmw2Y7FYuHv3rmSctugJCQkhJCSEpqYm8vLyWLVqFTk5OXh5eTmsc6XJ3nEABAUFUVJSYqPh2rVrjBo1yuH56EwUdZ+2vr6epqYm+vXrR+/evSkqKiIry+Y1U21Cq9USGhqKwWDgzp071NfXc/XqVZKSknjy5Em72hwyZAhjxowhIyOD+/fvU1ZWRmZmJpMmTcLHxwetVktwcDBbtmzh1q1bPHr0iGPHjnH27FmXev7880+MRiMmk4nGxkYsFgsNDQ1YLBanda40OWLq1KkUFhZiNputyi9cuMC0adPadX6eF9n3tC3x8/MjJiaGtLQ0Hj58iE6nY9q0aVy5cuW52k1MTGT//v3ExcVRWVnJiBEjWLRoEb179253m8nJyezYsYOlS5eiUqmYMGECK1askOrXr1/P7t27iYuLo66ujrCwMOmpkzM9Y8eOpaSkhPj4eCoqKhg2bBjJycloNBqnda3RZA+dToe/vz/nzp0jJCQEgEuXLuHp6cm4cePafX6eB3uXxu8DP4iX3wmaKSwsZPfu3Xz99dfA02uYyMjITo+v/u/ld4eBeS3LFdXTCtzDG2+8IRkWsLpF5g4UNaYVCECYVtDBdEUiTJhW0KF0RSLM7SmvtiASYfKmqxJhirsQE4kw+dJViTDFmdYRIhHWcxJhsjetxWLBw6N1Q2+RCOsZiTC3p7zu3r3Lzp07+euvv+jXrx/Tp09nxowZDB48mLy8PP79918WLlworS8SYSIR5vaUV15eHjNmzCAhIYHS0lJ++uknPvvsMxobG5k4cSLLly+3Wl8kwv6fnpoIc/vw4IMPPpB+DwgIIDY2ltjY2Ha1JRJhtnTHRFi3vU8rEmHdNxHm9p62sxCJsO6bCBMpL0GH0pGJMJHyEnQJXZEI67ZjWkH3RZhWoDiEaXsYcptMrj0I0/Yw5DaZXHtQVDRRzighNinHyeTag7h70IHIPTYpx8nk2oPbTdsccfv777+5fv06Q4cOZdWqVVJGQClRvtYco7tjk3KcTK49uN20AEePHiU1NRWdTseRI0eIj4+3Ck0rIcrnCjnEJisqKmQ3mVx7cHs0EeDdd99l7NixACxYsICff/6Z06dPSxE8uUf5mlFSbFLJuD2aCE9DI88ul5eXS8tyj/I1I/fYpBwnk2sPshgeNJ/wlsuhoaHSstyjfF5eXi6PUQ6xSTlOJtceZHGf9ujRo1y8eJHa2lp++OEHysvLpa/VZ5FjlK+tuCs2KcfJ5NqDLHrad955B6PRKN092Lx5s9P/XJVjlK8tuCs2KcfJ5NqD26OJy5YtY/78+bz11ltdsr+ejrsmk2sPIpooAOQ3mVx7kMWYViBoC27vaY1Go7slCBSG6Gk7gU8++YQff/zxudroDhHCzkKYVqZ0hwhhZ9Hhpn3w4IHVo8jOJiYmhhMnTliVxcXFER4eTnh4OJGRkSxdupS8vLwu0/Qs9jQ6w1WEsKfTbXvaOXPmcOrUKY4cOcKsWbP44osvuHnzprtltQpXEcKejttNW1FRQUJCArNmzeLDDz8kJyeH8PBwqqurgadxu8zMTObPn09UVBSJiYn8888/AKSmpnLt2jW+/PJLwsPDrcaAzXh5eTF79mxUKhU3btyQyp21C09jiAsWLCAyMpJVq1ZRXFws1c2bN8+qxysvLyc8PJyamhqb/TvS6Kz9oqIiXn75ZZu2dDodRUVFrT633RW33z1ISUlBq9Vy8OBB6urqSE1Ntap3FrfbsGEDJpOJ2bNnExkZabf9+vp6fvzxR1QqFa+88kqr2nUWUWwr9jS6ijl2lwhhZ+HWaKLJZOLy5cvk5uYyaNAgvL29+fjjj1mzZg3gOkroLG7XMibYq1cvNm3axLBhw1rVrrOIYkfQmpijwDFujSZWVFSg0WgYNGiQVNYyptjaWQrt0RwTrKqqYuvWrezbt4+JEyfi4eHxXBHFjsBVzLG7RAg7C7cOD1566SXq6uqorq6WjNsyptiauJ2rCZe9vb35/PPPWbhwIT/99BNRUVHPHVH08vKScqyAXYO50uis/e4SIews3HohNnToUEaPHs22bduoqqqitLSUb7/9VqpvTdzuxRdf5MaNGzZxu5b079+f+fPn891339HY2PhcEUWAl19+mRMnTlBTU8M///zDrl27nB7nsxpdtd9dIoSdhdvvHmzYsIGamhoWLVpEQkKClDZqjtMlJibyn//8h7i4ON577z22bdtGZGSkVL9gwQLOnTvHjBkz7N49aCY6Opr6+nqOHz/ust2xY8fSv39/4uPjeeedd8jKyrKKIcbExFBdXc3cuXNJTExk6tSpTo/xWY2u2m8ZIWxGiRHCzsLt0cRnOXfuHOnp6Yr679DOQEkRws5CttHEU6dO4enpyfjx4yktLWXXrl3Sf6r2ZLpDhLCzcLtpx40bR0ZGBl999RVqtZqpU6fy8ccfu1uWQMa43bQDBw5kw4YN7pYhUBBuvxATCNqKMK1AcQjTChSHMK1AcTi8ENu4cWMXyhAIbHEUw7T3cCEYWNOpagSC1nMW+K+7RQgEAoFAIBAIBAJBj+b/AIe+A2JB98aNAAAAAElFTkSuQmCC;" parent="1" vertex="1">
                    <mxGeometry x="-414" y="150" width="173" height="132" as="geometry"/>
                </mxCell>
                <mxCell id="12" value="" style="shape=image;verticalLabelPosition=bottom;labelBackgroundColor=default;verticalAlign=top;aspect=fixed;imageAspect=0;image=data:image/png,iVBORw0KGgoAAAANSUhEUgAAALQAAAElCAYAAABNgMhgAAAABmJLR0QA/wD/AP+gvaeTAAAgAElEQVR4nO2de1QUV56Av8YH4iNwRBGUmBgNGdA4Ko5RjEnQRAgg8e0hunNmI4qjgo+T8FgXEFwGdN3R+CAhkuxkXOMmKHHFF8YEHZ0YM4nGyDgoPtZVRAUVV5TgIOwfbFdo6K6qhobqLu53DudoVde9t4ofxa1bH78fCAQCgUAgEAgEAoGg3WIws20MsLytByIQNIPfA8cbbuho5kNPAtNffvnlNhmRQNAcjhw5ApCDioAGYOXKla07IoGgBQQGBprd7tTG4xAIWhUR0AJdIQJaoCtEQLciCxcuZO/evVoPo13RLgJaBFb7waEDesWKFaSnp5vdt2zZMt59910AMjMzCQ0NlW0rKiqKAwcO2HyMDYmNjWXTpk2t2kd7x6EDOjw8nCNHjlBZWWmy/dq1a5w+fZpJkyZpNDKBVlhch3YERo0ahaurKwcPHmTq1KnS9j179uDn58czzzwD1E85QkNDpbt0ZGQko0ePprCwkPPnz1NVVQXA6tWrWb16Nb6+vmRmZjJjxgzi4+Px9/cHoKysjJkzZ5KXl0f37t1JSEjgm2++wWAw0KdPH0JCQpgzZw4Gg7kXsE2JjIxkxIgRFBUVUVxcTJ8+fYiLi+PMmTPk5OTw8OFDxo8fz/Lly6U2lfosLy9n7dq1nDlzht69exMeHs7GjRvZtWsXrq6uVFVVkZ2dzbFjx3jw4AHPP/88S5cupU+fPrb5pmiMQwe0wWAgNDSUvXv3SgFdU1NDfn4+UVFRssfu37+f1NRUfH19cXJyIioqiilTphAcHKy6f+N0p7a2losXL5KSkkLfvn2ZMGGC6jaOHj1KSkoKTz75JBs3buTtt99m/PjxfPTRR9y7d48lS5bg7+/PK6+8oqrPlJQUPDw82LZtG1VVVaSmpjYZ86NHj1i/fj2urq58/PHHJCYmkpWVpfoH0Z5x6CkHQGhoKFeuXOFvf/sbUB8gNTU1Ft8kGZkyZQqDBw/Gyanll8DJyYlnn32WqVOn8uc//9mqY6dOnYqPjw8uLi5MnDiRqqoqFi1aRI8ePfD29mbEiBEUFxer6rOkpITCwkJiYmJwc3PDy8uL+fPnS8eUlZVx9OhR3nnnHby8vOjatSsLFiygpKSEy5cvt+wi2AkOfYcGcHd3Z/To0eTl5eHr60teXh4TJ07E2dlZ9jgPD48W93348GE++eQTrl69yk8//QTAkCFDrGrDzc1N+nfnzp1xdnamS5cuJtuqq6tV9VleXo6Liwuurq7S5728vKR/l5aWAjB9+vQm47hx44Y0RXNkHD6gASZNmsTKlSuZMmUKP/zwA9HR0YrHNP71au5O7ezsbBJMFRUV0r/v3r3LqlWrSElJYcSIEbi4uLBz506++uqrFpyJPEp99urVi6qqKu7duycFtTGIATw9PTEYDOzatYsnnnii1capJQ4/5YCfHw6Tk5Px8/NjwIABVrfRs2dPLl26xOPHj6VtgwYN4sCBA1RWVnLz5k2ysrKkfdXV1dTV1dGtWzc6derE2bNnycnJscn5WEKpz379+jF48GA2bNhARUUFpaWlfPDBB9J+Dw8Pxo4dS0ZGBteuXaO6upqioiISExP5+9//3qpjbyt0EdAGg4GwsDBKS0ubvVQXERHBiRMnCAoKYuHChUD92vS9e/eYPn06CQkJjBs3Tvq8p6cnUVFRrFq1ipCQEDIzM3nppZdscj6WUNNnUlISlZWVzJ49m/j4eOlhslOnTkD9Kkn//v2JjY1l8uTJbNiwgeDgYGm/o2PusXYm8GlBQUFbj0XQCpw4cYK0tDR2796t9VBsyv8/9M8CPmu4XRdzaMHPFBQU0KFDB0aOHElpaSlZWVmMHz9e62G1GSKgdYa/vz/r169n7dq1dOnShXHjxpks3ekdEdA644knniApKUnrYWiGLh4KBQIjIqAFukIEtEBXiIAW6AqLD4WHDx9uw2EIBK3HTKBOfIkvB/iaSSMs3qHFm0KBPSMSzQjaBSKgBbpCBLRAV4iAFugKEdACXSECWqArREALdIUIaIGuEAEt0BUioAW6QgS0QFeIgBboChHQAl0hAlqgK0RAC3SFCGiBrhABLdAVIqAFukIEtEBXiIAW6AoR0AJdIQJaoCtEQAt0hcW8HEpl0QQCe8RiQCcnJ7flOAQCq0hJSTG73WJAG4vNCAT2iKWAFnNoga4QAS3QFSKgBbpCBLQMCxcuZO/evVoPw2pOnTolFQ8FiI+P58iRIxqOqO1wiIB21MDSii1btjB79mzp/2+++SbZ2dnU1dVpOKq2weYBfefOHSZMmKDqsytWrCA9Pd3svmXLlvHuu+8CkJmZSWhoqGxbUVFRHDhwwLrBWklsbCybNm1q1T5aSnFxMSUlJbzwwgvStqFDh1JTU8P333+v4cjaBk3v0OHh4Rw5coTKykqT7deuXeP06dPNrtvdnjl69CgjRoygY0fTFdmRI0dy9OhRjUbVdmhaeHPUqFG4urpy8OBBpk6dKm3fs2cPfn5+PPPMM0D9lCM0NFS6S0dGRjJ69GgKCws5f/48VVVVAKxevZrVq1fj6+tLZmYmM2bMID4+Hn9/fwDKysqYOXMmeXl5dO/enYSEBL755hsMBgN9+vQhJCSEOXPmYDCYK4HelMjISEaMGEFRURHFxcX06dOHuLg4zpw5Q05ODg8fPmT8+PEsX75calOpz/LyctauXcuZM2fo3bs34eHhbNy4kV27duHq6kpVVRXZ2dkcO3aMBw8e8Pzzz7N06VL69OkDwNmzZxk+fHiTsfr4+Oiu3rc5NA1og8FAaGgoe/fulQK6pqaG/Px8oqKiZI/dv38/qamp+Pr64uTkRFRUFFOmTCE4OFh1/8bpTm1tLRcvXiQlJYW+ffuqnjJB/R0xJSWFJ598ko0bN/L2228zfvx4PvroI+7du8eSJUvw9/eXXlQp9ZmSkoKHhwfbtm2jqqqK1NTUJmN+9OgR69evx9XVlY8//pjExESysrIwGAyUl5fj5ubWZJxubm6Ul5erPi9HxSZTjoyMDAIDAwkMDGTatGnU1tZK/w8MDOTDDz+0eGxoaChXrlzhb3/7G1AfIDU1NYouyZQpUxg8eDBOTi0/BScnJ5599lmmTp3Kn//8Z6uOnTp1Kj4+Pri4uDBx4kSqqqpYtGgRPXr0wNvbmxEjRlBcXKyqz5KSEgoLC4mJicHNzQ0vLy+TOt1lZWUcPXqUd955By8vL7p27cqCBQsoKSnh8uXLLbsIOsEmd+j4+Hji4+OB+ofCGTNm8OWXX6o61t3dndGjR5OXl4evry95eXlMnDgRZ2dn2eM8PDxaPO7Dhw/zySefcPXqVX766ScAhgwZYlUbDe+GnTt3xtnZmS5duphsq66uVtVneXk5Li4uuLq6Sp/38vKS/l1aWgrA9OnTm4zjxo0bPPPMM7i7u1NRUdFkf0VFBb169bLq3BwRuyheP2nSJFauXMmUKVP44YcfiI6OVjym8TzX3J3a2dnZJJgafqPv3r3LqlWrSElJYcSIEbi4uLBz506++uqrFpyJPEp99urVi6qqKu7duycFtTGIATw9PTEYDOzatYsnnnjCbB9+fn5cuHChyfbz58/j6+vbCmdlX9jFOrTx4TA5ORk/Pz8GDBhgdRs9e/bk0qVLPH78WNo2aNAgDhw4QGVlJTdv3iQrK0vaV11dTV1dHd26daNTp06cPXuWnJwcm5yPJZT67NevH4MHD2bDhg1UVFRQWlrKBx98IO338PBg7NixZGRkcO3aNaqrqykqKiIxMZG///3vAIwbN45Tp06ZXAeA77//npdeeqlVz88esIuANhgMhIWFUVpa2uyluoiICE6cOEFQUJD0liwqKop79+4xffp0EhISGDdunPR5T09PoqKiWLVqFSEhIWRmZrb6N1xNn0lJSVRWVjJ79mzi4+Olh8lOnToB9ask/fv3JzY2lsmTJ7NhwwaCg4Ol/T4+PvTt25cTJ05IbZ45c4YOHTpIqz16xtz61EzgU1F40z44ceIEaWlpVi25nTp1ii1btpCZmQnUP+MEBwfrSgn+/0WDWcBnDbfbxRxa8DMFBQV06NCBkSNHUlpaSlZWFuPHj7eqjeHDh0vBDPWrUO0FEdB2hr+/P+vXr2ft2rV06dKFcePGmSzdCeQRAS1D4zeUbcETTzxBUlJSi9owN+V4/fXXefnll20xRLvGLh4KlRC2nXUI286GCNtOW4RtpyHCtrM9wrbTEGHbCdvO1gjbDmHb6Qlh2yFsOz0hbDth2+kKu1iHFradsO1shV2sQwvbrh5h27UcuwhoYdv9jLDtWoaw7ewcYduZR9h2DoKw7VqGCGg7Q9h2LUMEtJ1hC9uuPWMXD4V6wFGNQL0ldtRdQDtqYGmF3lRTTfVRaxCqqe3Ro2rqMHdooZraHj2qpg7zUChUU6GaqsHuA7q2thYnJyehmgrVVBWa66PXr18nKSmJ8PBwIiIiyM7Olky0PXv28J//+Z/SZ4VqKlRTJTTXRw8dOkRQUBDx8fGUlpayb98+li1bRk1NDaNGjWLBggXSZ4VqKlRTJTSfcvz617+W/j1w4ECio6Nl9VGhmgrVVA6HWeUwIlTTeoRqah6HC2ihmv6MUE2bIvRRHdGeVFOhj+oQoZo2RQS0AyNU06aIgHZghGraFId7KGxr9KZX6h3dBbSt9VG96ZV6x2H0UbWo0UfVoke9Uu/o7g5tS/SoV+odzR8KG+udb7/9NmPGjJHVHnNzc8nJyeHu3bv4+PgQHR3Ns88+C5jqo99++y1xcXFN+ly7di3+/v7tUq/UO5oHNDTVO5OSkixqjyUlJbz33nusW7cOHx8fLly4wJdffikFdENGjRpFwxdEf/zjHzl27Bh+fn5A+9Qr9Y5NAjojI4P8/HyTbQ2Vzjlz5jB37lyLxxv1TvhZe9yxYwfu7u4ALFiwgLCwMC5fvoyLiwsdO3aka9eudO7cGT8/PylA5cjPz+fAgQNs2rQJFxcXxX6MfzAgcCw010fBVO9U0h4DAgJITEzk/fff5969ewwcOJBp06YxcOBAi+1/9913ZGVlsX79enr27KmqH73qlXrHLqYcDfVONdpjQEAAAQEB1NXVcejQIWJiYsjNzTXrRV+4cIG0tDRWrVpF//79repHj3ql3rG7VQ4l7fG7774jOzubkpISampqqK2t5dGjR9TW1jZp6+bNmyQkJLBs2bImMn571Sv1jl3coRuTkJDAH//4R2JjY7l79y4DBgxg9uzZdOrUiWHDhnHhwgXi4uIoLy/H29ub5ORkXFxcmrRz9OhRysvLSU5ONtluXOWQ6wdM9cqAgADA8fVKvSP0UQUcVa/UO5b0URHQAofEUkDb3RxaIGgJIqAdnMjISL744gvZz7QnY1AEdDugPRmDNl/laM6LFUeiYdalR48eERQUZPGzTk5OstchNjaWv/zlL0B9GoV+/foRERHBq6++arPxKhmDI0eOtFlf9oBdLts5Cp07dzZxRZKTk+nevTvvvPOO6jamTZvG4sWLqa6uZu/evfzud79j4MCBzUrPYA4lY1AEtI15+PAhH374IV9//TWVlZW88sorLFq0iC5dulBRUcGmTZsk93jUqFEsXryYHj16APXzx4CAAAoLCzl37hw9e/ZkyZIljBw5ks8//5x9+/axZcsWqa/S0lJmz57NJ598gqenp6JtpzbRoyWUxt8QZ2dnpkyZwubNm7l06ZIU0EoJGQGuXLlCTEwMFy9epF+/fsTExEgvktqbMaj5HDotLY3i4mIyMjLYvn07zz33HKdOnQJg5cqVVFZWkp2dTVZWFmVlZaSlpZkcn5+fz/z588nNzSUoKIi0tDTq6up49dVXuXLlismr6wMHDjBs2DA8PT2BetuupKSE9evX89lnn9G/f38SExNN5pb79+9n3rx57Nmzh4KCAnx8fIiLi6OgoEA2mNWO30h1dTWff/45BoOB5557TtqekpJCt27d2LZtG+np6WYfAHfv3s1bb71FTk4OgYGBxMXFSQ5KezMGNU3WeOvWLb7++mvi4uJ46qmn6N69O2FhYYwZM4bS0lJOnz7N0qVLcXd3x8PDg+joaE6cOMHt27elNqZPn84vfvELnJ2deeONN6ioqOD27dv06NGDsWPHsn//fgDq6urIz88nJCQEUJ/MsLmJHtWOf+fOnQQGBhIcHMx7773Hv/zLv+Dt7Q0oJ2Q0Eh4ezrBhw+jatSsRERH07t2bY8eOWTVevaCpbXfjxg2cnJzo27dvk323bt2iQ4cO0t0U6tNfQX0wGpXPhncfo5xkzFH3+uuvk5aWxm9/+1t+/PFHKisrpYxIamw7aH6iR7XjN86hKyoqWLduHR9//DGjRo3CyclJMSGjpW1eXl6UlZUBtDtjUNM5tKenJ7W1tVy/fl36Zhvx8PDg8ePH3Lp1SwqqkpISAHr37q2q/V/96ld07tyZ48ePc/ToUcaPHy8FvRrbDtQlejSHteN3c3PjnXfe4c0332Tfvn2EhYUpJmQ00nhbaWkpY8eOBdqfMajpHNrDw4MxY8awZs0arly5woMHD9izZw/Hjx/Hy8uLoUOHsn79em7fvs2tW7fYuHEjL7zwgnR3U8JgMBAUFMTOnTv505/+JE03jH0r2XbmMJfo0RzNGX/37t2ZNWsWW7dupaamRjEho5Hdu3dz+vRpHj58yKeffkpZWRkvvvgi0P6MQc0fClesWMGAAQOIjY0lIiKC8+fPS0/lRotu7ty5REVF0atXLxISEqxqPzg4mNOnT+Pl5cUvfvELk31KyQzNYS7RoyWaM/6pU6dSXV0tzf2VEjJCfYrh7Oxspk+fzqFDh0hPT5emYnpMyCiHkJMcjPaUkFEOkazRQREJGa1DBLSdIxIyWocIaDtHJGS0Ds0fCgWmtCfVszUQAW1ntCfVszXQXbLG5rB161YCAwM5ePCgVcfZup63SA7Zctr9Hbquro59+/YREhKiuX0mkkO2HM0DOjc3l4iICIKDg4mJiTGppJqQkEBgYCDjx48nIiKCrVu3Sr96P//8c+bNm2fSVmlpKePHj+fGjRsAVFVVsXHjRmbNmkVYWBgJCQncvHnT5Jhvv/2WHj16sGzZMm7cuNGkyqrc+BoTGRlJdnY2MTExhIaGMn/+fAoLC6X95eXlxMfHExoaym9+8xtyc3MJDAzk3r17QL3qOWjQoCbt+vj4cPbsWTWXs92jaUBfu3aN9957jxUrVrB7924WLFhgIjWlp6dTUFDAoUOHSE1NJT8/Xyo8aSs9NC8vjxkzZtCxY0cmT57Mnj17VI/PHHIqp5IK2t5Uz9ZAU320Q4cOTRIvNiyFLA3STK1rW+iht2/fpri4WEosGR4ezpEjRyRbT+34GmJJ5VSrggpahqb6qJeXl2ziRaX62i3VQ/fu3cutW7d47bXXTPYXFBQQHBysOD5L59T4/2VlZapU0PamerYGmr9YsZR48eHDh4r1tVuih9bV1bF3717+8Ic/8NRTT0nbv//+e/793/+d4OBg2fGZSwwJllVONSpoe1M9WwNN59ByiRfV1NduiR767bffApgEM8Avf/lLLl26xKVLl6xKDGnEksqpRgVtb6pna6DpHVou8aKLi4tU6/r+/fv4+Pjw0ksv8de//tWkjeDgYLZt28bTTz9tVg+1lIxx9+7dJuu9Rjp27Mjw4cPJy8tj0aJFiokhG/8BgFHlNP7BakOVMykpiX/7t39j9uzZ9OrVi5CQEIqKikRySBsi9NEWsHDhQgICApgzZw5Qv2w3a9asJnNyS5hTQfWoerYGQh+1IXV1dRQVFVFcXExkZKTq49SooO1J9WwNREA3g5SUFAoLC4mIiGDEiBGqjxMqaOsjphwCh0Sk021DhAKqHSKgWwGhgGqHw+ujUVFRHDhwwGRbbGys9No9KCiIN998k7S0NM6dO9fitpUQCqi26PYOPW3aNAoKCti7dy+rV6/G3d2dRYsWtbqGKRRQbdE8oJWUSjkFNDU1lfPnz7N69WoCAwPN5sno2LEjTz75JAsWLGDixIls2LBB+tUvp6daalvuGBAKqNZovmyXkpKCh4cH27Zto6qqitTUVJP9cvW4k5KSKCkpkRKQK/Haa6+xf/9+rl69Sv/+/UlPTwegtraWixcvkpKSQt++fZkwYYLFtuWOAaGAao2m+qiSUqk2Q6hajDnl/vd//9dkuzk9VYnmHCNofTTVR5WUSrUZQtVizMhp7E9JTzWH0jFCAdUWTaccSkqlmgyh1uRt/uKLL+jduzfe3t7cvXtXUU9t3LaaY4QCqi2aPhQqKZVqMoQqZQOtqanh6tWrZGVlcfDgQaKjozEYDKr01MZtqzlGKKDaovlDoZJSqVSPOyIign/9138lNzcXHx8fSezZuXMnO3fupFOnTri7uzNkyBA2b94slXvw9PRU1FPNta10jFBAtcXuXI7mZNe0N4QC2vrYrT5qi+ya9oZQQLVD84AWSqXAlmj+ptCYXXP37t189tlnREdHW/wDVC25c+eOyRtMc4i629qjeUDbCwsXLmTv3r2t3o8w8VoX3dl2O3fuNAkYQPJDvvvuO2lbdXU1EydOlGqPZGZmEhoa2ux+1SBMvNZHd3dof39/rl+/bpLD7uTJkzz99NOcPHlS2lZYWEhdXR1Dhw5ts7EJE6/10TygbW3bPf3007i7u0vBW1tby+nTp/nNb35jEtAnT57Ez89PSknQeMpx+/ZtEhISpHH96U9/kvbJWX5Xr15l+fLlhIaG8g//8A8mvxWEidf6aL7K0Rq23fDhw/n+++95/fXXOX/+PD179mTs2LGsWbOG+/fv06NHD06ePMno0aMtjis1NRU3Nze2bdvGw4cPTcYlZ/nl5+eTkpLCgAEDyMnJIS0tjdzcXAwGgzDx2gBd2nb+/v6cOnUKqH/lPHz4cDp27MiQIUP44YcfePDgAefPn7f45u769ev8+OOPLFu2DDc3N/r27at6KdFS7XFB26BL227EiBHcuXOHK1eucOrUKcLDw4Gf79xOTk44Ozs3ybRkpKysjC5dupjcTc3VIzeHXO1xYeK1Prq07Tw8PPD29ub48eP89a9/lapIDR8+nLS0NDp06MAvf/nLJg9nRnr37s1PP/1ERUWFFKCNEytaY/kZESZe66Nb287f35+cnBy8vb2lHwYfHx/u3r3L4cOHZRPE9O3blyFDhvDuu+9aTKyotuZ3Q4SJ1/povsqhVMtaqR63pdrb/v7+3LlzR6obDvWJFYcOHcqdO3cUzbfk5GSqqqqYPXs2CQkJBAUFmey3pua3kfZWd1sLhG3XxggTzzYI285OECZe66J5QAvbTmBLNA9oUctaYEs0fyjUO0IpbVtEQMsglFLHQ3f6KFiuwb1w4UL+8Ic/qG5bKKWOh7hDa4xQSm2L5gHd2ska5VCqBd54yiE3VqGU2gear3K0ZbLGxsi13bhcm9JYhVJqH9gkoDMyMsjPzzfZZqyfDTBnzhzmzp3b5DijPrpr1y5cXV1xc3Nj/vz5LF++HPhZH92xYwfu7u4ALFiwgLCwMC5fviyb286YaKYxo0aNalbbSmOVw6iUArzxxht8+OGH3L59Wxh2rYAu9VGoT3i+ePFik20NpwHWtq2mVrclhFLaduhSH1WDmratGWtzxyKUUtuiW31UCTVtWzPW5o5FKKW2RfNVjtbSR9Wg1La1YxVKqfYIfbQF2GqsQim1HqGP2oDWGqtQSm2H5gHtSPqoI421vWJ3Uw6BQA2i1ncj1GidWmKt6ScU1HrabUDrDaGg1qNLfRSgqKiIFStW8MYbbxAcHMzcuXPZvn279IZOTwgF9Wd0eYf+9ttviYmJwdvbm82bN/Nf//Vf/PM//zMPHjzg+PHjWg/P5ggF9Wc0X+UoLy9n7dq1nDlzht69exMeHs7GjRslCaiqqors7GyOHTvGgwcPeP7551m6dCl9+vQxUTZXr16Nr68vmzdvZt26dYSEhPDb3/5W6mfAgAFERkaa9G3UOs+dO0fPnj1ZsmQJI0eOBOpfunzzzTcYDAb69OlDSEgIc+bMkSy8yMhIAgICKCwsNHu80n658zJHbm4uOTk53L17Fx8fH6Kjo3n22WeBegW1Yf4RIz4+Pg6xnm9LNA9oW+ujV65c4caNG0ycOFGxbzmtU6mmt9LxatpXq65eu3aN9957j3Xr1uHj48OFCxf48ssvpYAWCurP6C77qNFcU2OqqckUKlfTW+l4S/utPa8OHTrQsWNHunbtSufOnfHz82PBggWK59ce0Z0+arxTlZeX4+HhIdu/nNappg643PFy+41Br/a8vLy8SExM5P333+fevXsMHDiQadOmMXDgQEAoqA3RnT7av39/PD09+eKLL/Dz82vWuNTU9G4J1qqrAAEBAQQEBFBXV8ehQ4eIiYkhNzcXZ2dnoaA2QHf6qMFgYNmyZezbt48PPvhAOu6///u/yc7O5vDhw4rjUlPTuyVYq65+9913ZGdnU1JSQk1NDbW1tTx69Ija2lpAKKgN0fyhsDVqfY8aNYp3332XrVu3snDhQh49ekS/fv147bXXGDNmjOKY1NQBbylK59WQYcOGceHCBeLi4igvL8fb25vk5GSpPoyoL/4zdudyOJI+ak+0NwVV6KM6Ryio9Wge0ELJFNgSzQPaXrOPLly4kNDQUKtSgTka5qYpr7/+Oi+//LLGI2s+unQ5BOrQo6Fn8zu0NS9WbEFUVJTZbEVFRUVs3bqVwsJCqqur6devH6+++ipTp06VXnK0NteuXSMrK4vCwkJqamrw8/Nj9uzZbVqO2RJKhp7ROXE0dHmHthfbLi4uDhcXFz744AM+/fRTZsyYwSeffNJm/cuhV0NP8zm0VrZdRUUFmzZtknzhUaNGsXjxYnr06GF2nEqfj4yMZPTo0RQWFnL+/Hnmzp3L9evXSUlJoXfv3kB9sDS88xmP+fHHH7l48SL9+vUjJiZGesWuZM4RgjMAAAriSURBVPw9fPiQDz/8kK+//prKykpeeeUVFi1aRJcuXRRtPr0aeprfoVNSUujWrRvbtm0jPT29yZ9FpaenU1JSwvr16/nss8/o378/iYmJ1NXVkZSUhI+PD3FxcRQUFJCZmcn//M//qLLtVq5cSWVlJdnZ2WRlZVFWVkZaWlqLPr9//37mzZvHnj17mDp1Kt7e3nz88cecPXuWR48emW139+7dvPXWW+Tk5BAYGEhcXJzkZaSnp1NQUMChQ4dITU0lPz/f5PV7WloaxcXFZGRksH37dp577jmpJLTcdQP9Gnrt0rYrLS3l9OnTLF26FHd3dzw8PIiOjubEiRNm63Kr/fyUKVMYPHgwTk5OGAwG1q1bR69evfjd735HaGgoixcvbvLrPDw8nGHDhtG1a1ciIiLo3bs3x44dM/mMOePv1q1bfP3118TFxfHUU0/RvXt3wsLCGDNmTLNrpOuBdmnb3bp1iw4dOuDp6Slt69evH1D/Q2TMRmrt5xv316tXL5YsWQLUTw8OHjxIcnIyv//97xk2bFiT8zX+v6ysDJA3/m7cuIGTk5PZGuRqrpteDb12adt5eHjw+PFjbt26JQVhSUkJgDTfbc7nzeWUNtK1a1cmT57MZ599RmFhoRTQjRM+lpaWMnbsWEXjz9PTk9raWq5fvy79cBlRc930aui1S9vOy8uLoUOHsn79em7fvs2tW7fYuHEjL7zwQpO7M2D156H+N8Q//dM/cfLkSe7fv8+DBw/Iy8vjxo0bJgGze/duTp8+zcOHD/n0008pKyvjxRdfVDT+PDw8GDNmDGvWrOHKlSs8ePCAPXv2cPz4cVXXTa+GnuarHFrZdsnJyWzevJm5c+diMBj41a9+xaJFiyyO09rP9+rVi/DwcLZv3865c+d4/Pgx3t7exMfHmxhwkyZNIjs7W1rlSE9Pl6ZNSsbfihUr2LJlC7GxsVRVVfHKK69IuTmUrpteDT1h22lIZGQks2bN4rXXXtOkf0c29IRtJ2iCHg09zQNa2HYCW6J5QNurbdcWZGdnaz0E3aH5m8KW0Falix1lHM1FT4keHTqg2yOt8cOjJ43U4fXRlhIbG8tf/vIXoP4lTa9evQgKCuIf//EfZV+UaEXDhzhboDeNVNyhqa9pWFBQwMGDB0lMTGTnzp0OPYWwBr1ppJo/FMopkK2teL799tsmx3fo0IEhQ4bg6+trIvEoaZyNaWmiR7lr0vhPw5TaUtJz9aaRan6HllMgW1vxbLze/fjxY86ePUtRUZHJX5UoaZyNUfP5/Px85s+fT25uLkFBQaSlpUlzVrlrYg65tpT0XL1ppJrW+jYqkP/xH/8hCTZhYWHAz8rm9u3bJV8iOjqat956i9u3bzdxKNR+3qh4NqRxXfBXX32VF198scl4G2ucSond5T5vqf53bW2txWtiCUttVVdXN7s+uaOiqT4qp0C2leIJP9cFr6ur48aNG2RkZLBmzRoSEhIAdYkbG9KSRI+3b9+2eE0sYaktNfXJ9aaRajrlaKhANqahsmlEreIp93m5lQuDwYCXlxcTJkyQHoiMGuevf/1rSd9ctGiRxfLH1n6+MXLXxFoa6rlGGuuqetNINQ1oOQWyLRTPxhjv0F999ZWUqtbaxI0tTfQod02sRU19cr1ppJqvcsgpkK2teBoxzqENBgOurq4MGzZM+gNbaxM32iLRo9w1sRYlPVdvGqnd6aOC1sWcnuuIGqnd6qOC1kWNnqsnjVQEtM5pb3quCGid0970XM3fFAraD22hqWoe0I7uEusVR9VUNa/1nZmZqdsczNeuXSMxMZEpU6YwadIk4uLi+PHHH1Ufb6mOua0x14+tvy9tVY9c8zu0nrHn7KNtTVtpqpo/FFqrQ8qpleb00DFjxshm4VRSPeVqbMtl+Lx7965i9lG5vs1lVs3MzGTGjBkmuT3KysqYOXMmeXl5dO/e3ew1+OKLL6zup/H3RY2aK/d9aytNVfOANodcjey0tDTu379PRkYG7u7uHD58mFOnTkkJZPbv309qaiq+vr44OTmRlJQkW1Nbrqa3Uo1tuXrdbm5uUvbRiIgIBg0aROfOnU3OU65vc3XM1dL4GhjXnVvSz8qVK+nSpQvZ2dk8fvyYjIwM0tLSTNas5b5vbaWpapp91BKWamTLZdw00jADqDVZOM1l+JSrsa3Uttrso5b6bgkNr4Et+lGbfVVN7fTWRlN91BItUSsb6qFqsnDKqZ5yNbbVtK2UfdRaLVUtjRXZlvajVs2Vq33eVpqqXU45LCGXcdNIQz1UKQunmprelmpsW1uvu3H20aeeekqx78Z3WKgPFGOQAGaDpOE1UHOO5vppiLXZWs3RVpqqQ61yWKtWKmXhVFI95WpsK7WtlH1UjWbaOLMqwKBBgzhw4ACVlZXcvHmTrKws2WvW3H4aYgs1t600VYe6Q4P1aqVcFk4l1VOpxrZc22qyjypppuYyq0ZFRZGRkcH06dPp27cvb7zxhuw6rhqd1Vw/jWmummukrTRVoY8K2gxbaqqW9FER0AKHxFJAO9QcWiBQQvOAfvz4MWvWrCEkJERat1YqyaaEnpIPCqxD84A+fvy49ORdUFDA+++/b7K/OdaXnpIPCqxDc9uuuLgYX19funXrZna/tdZXW1ldAvtE8zv0/fv3pb9AtgV6Sz4osA5N16GNthlAXl4ec+bMaZKCy5yNJ1cfW2/JBwXWoekdOj09ncmTJzNp0iQKCgrM5r8zh1x9bL0lHxRYh6bJGpuLsT421L/lys/P59ixY4pJDQX6xy5tOyXk6mPrLfmgwDo0fyhsDubqYxutL70lHxRYh0MGtKX62KC/5IMC63A42w7k62PrLfmgwDpsHtA9e/a0av5s/IsOI8899xwHDx6U/m9OZXz66aeZN2+exTbnzZvHli1bpIDetm2bpD0K9I1D3qGV0FPyQYF1OOQcWiCwhMPdoUV9bIEc4g7dAiIjI5uUSbNn2oNWKwK6AXpPHNketFrN9dGWYi7RYGxsrPTHAhMmTGDWrFl89NFHit84WycobKtki2poL1qtbu/Q7bl+tznai1ar+UOhUi1quYSIlhINNsRS/W5zSQ137NhhoqoqjQ3g6tWrLF++vEmCQktjU0pqKHe+IJ88Um5fe9FqNQ/olJQUPDw82LZtG1VVVaSmpprsl0uIqCbR4OPHjzl37hxFRUVMmjTJZF/jpIY7duywamxgOUGh3NjkkhrKnW9JSYnF5JFKiSXbi1arqT5aUlIiW4vamBBxx44dUoaeBQsWEBYWxuXLl3nmmWcsjklN/W5zdb/Vjs2IpTrbcmafpWPq6upkz9fFxaVJ8kg/Pz/AfGJJ4772hKb6qFItajUJES2hVL8bzNf9Vjs2I3IJCi0hl4wSLJ9vQECAxeSRcoklof1otZpOORrWojYGTkM1VE1CRKVEgw3rd7///vsmAS3ndiiNTQ1KY2uMmvO1lDzS2dlZdl970Wo1XeVQqkWtlBARlBMNmqvfbYuxqUFpbI1ROl+55JFy+6D9aLWaPxQq1aKWS4gIlhMNytXvttXYlFCTBLExcucrlzxSKbFke9Fq7S63nbla1PaCPY9NDY5Y09sSdlvrW00taq2w57E1h/ag1Woe0PZci9qexyYwj91NOQQCNYh0uoJ2gQhoga4QAS3QFSKgBbrC4irH4cOH23AYAkHrMROoE1/iywG+ZiIQCAQCgUAgEAgEAoGR/wPec6mZlOCzUgAAAABJRU5ErkJggg==;" vertex="1" parent="1">
                    <mxGeometry x="-721" y="337" width="180" height="293" as="geometry"/>
                </mxCell>
            </root>
        </mxGraphModel>
    </diagram>
</mxfile>